# xmcd
#
# Track frame offsets: 
#        150
#        13241
#        26387
#        37844
#        48646
#        60924
#        71744
#        84914
#        95919
#        109264
#        121446
#        132532
#        144039
#        156320
#        168932
#        180761
#        193099
#        204771
#        216589
#        228862
#        239646
#        249522
#
# Disc length: 3483 seconds
#
# Revision: 2
# Processed by: cddbd v1.5.1PL0 Copyright (c) Steve Scherf et al.
# Submitted via: ExactAudioCopy v0.95b2
#
DISCID=2f0d9916
DTITLE=Hank Williams - Hey Good lookin'
DYEAR=1900
DGENRE=Country
TTITLE0=Jambalaya (On the bayou)
TTITLE1=Hey, Good lookin'
TTITLE2=Baby, we're really in love
TTITLE3=Whay don't you love me
TTITLE4=Cold cold heart
TTITLE5=I can't help it (If I'm still in love with you)
TTITLE6=Mind your own business
TTITLE7=I'll never get out of this world alive
TTITLE8=You're gonna change (Or I'm gonna leave)
TTITLE9=Lost highway
TTITLE10=Crazy heart
TTITLE11=My bucket's got a hole in it
TTITLE12=Howlin' at the moon
TTITLE13=I just don't like this kind of living
TTITLE14=Long gone lonseome blues
TTITLE15=Lovesick blues
TTITLE16=Dear John
TTITLE17=Why should we try anymore
TTITLE18=Half as much
TTITLE19=Moanin' the blues
TTITLE20=Honky tonk blues
TTITLE21=Settin' the woods on fire
EXTD=
EXTT0=
EXTT1=
EXTT2=
EXTT3=
EXTT4=
EXTT5=
EXTT6=
EXTT7=
EXTT8=
EXTT9=
EXTT10=
EXTT11=
EXTT12=
EXTT13=
EXTT14=
EXTT15=
EXTT16=
EXTT17=
EXTT18=
EXTT19=
EXTT20=
EXTT21=
PLAYORDER=
